Coordinates
version=1
nRows=16
nColumns=40
inDegrees=yes

Units are S.I. units (second, meters, Newtons, ...)
Angles are in degrees.

endheader
time	pelvis_tilt	pelvis_list	pelvis_rotation	pelvis_tx	pelvis_ty	pelvis_tz	hip_flexion_r	hip_adduction_r	hip_rotation_r	knee_angle_r	knee_angle_r_beta	ankle_angle_r	subtalar_angle_r	mtp_angle_r	hip_flexion_l	hip_adduction_l	hip_rotation_l	knee_angle_l	knee_angle_l_beta	ankle_angle_l	subtalar_angle_l	mtp_angle_l	lumbar_extension	lumbar_bending	lumbar_rotation	arm_flex_r	arm_add_r	arm_rot_r	elbow_flex_r	pro_sup_r	wrist_flex_r	wrist_dev_r	arm_flex_l	arm_add_l	arm_rot_l	elbow_flex_l	pro_sup_l	wrist_flex_l	wrist_dev_l
      5.80500000	     -2.50122251	     -5.08419337	     -1.01935126	      1.06404164	      0.92337284	      0.56659199	     10.23744137	      7.46140767	     -9.94751979	     22.42094581	     22.42094581	     16.38770077	     -4.49478941	     -0.58518436	     28.41102517	    -17.69506078	      0.26254545	     63.37782084	     63.37782084	      5.34438605	    -19.28854012	     14.66515010	     -9.78828070	      6.39342377	      0.09409884	     11.46731877	    -23.35721159	    -14.71954659	     57.96348662	     45.61058345	      0.00000000	      0.00000000	     -2.92454518	     -9.58338161	     -7.77311756	     35.69276557	     46.92553160	      0.00000000	      0.00000000
      5.82857143	     -2.47583331	     -5.11716132	     -0.72490210	      1.06193196	      0.92308174	      0.56826186	     10.16043759	      7.53389923	    -10.34328158	     22.65071373	     22.65071373	     16.56929979	     -4.34452682	     -0.55545777	     29.03873320	    -18.13664090	     -0.18243420	     62.67527262	     62.67527262	      6.39002136	    -19.36312583	     15.53005951	     -9.98068315	      6.50529227	      0.28395512	     13.82668509	    -23.40003426	    -14.77632164	     59.71982417	     45.56306931	      0.00000000	      0.00000000	     -4.47487106	     -9.05280357	     -7.16797481	     34.42134438	     46.81610869	      0.00000000	      0.00000000
      5.85214286	     -2.63601977	     -5.05411838	     -0.34006294	      1.05964106	      0.92271951	      0.56932277	     10.28056735	      7.39810046	    -11.04761786	     22.87925959	     22.87925959	     16.97084162	     -3.73716614	      0.02052972	     29.74159561	    -18.22386925	     -0.48549453	     61.39640403	     61.39640403	      8.59470696	    -19.39166138	     19.01652071	     -9.91374944	      6.59303520	      0.24920910	     16.07017484	    -23.46451103	    -13.90482172	     62.02466758	     45.46348857	      0.00000000	      0.00000000	     -5.81758896	     -8.85946654	     -4.58670751	     32.42646581	     46.42657841	      0.00000000	      0.00000000
      5.87571429	     -2.74119454	     -4.96992546	     -0.11165737	      1.05727676	      0.92261138	      0.57027018	     10.26614588	      7.34155790	    -11.25065494	     22.92110268	     22.92110268	     17.04438972	     -3.75738039	      0.05478625	     29.90866179	    -18.37646098	     -1.20903853	     59.14730724	     59.14730724	      9.80196045	    -19.40114219	     19.04836820	    -10.00269652	      6.60309618	      0.86923281	     18.31989236	    -23.62742714	    -14.03566443	     63.29875090	     45.43615873	      0.00000000	      0.00000000	     -7.01437630	     -8.31918682	     -4.11047390	     31.78999800	     46.33911370	      0.00000000	      0.00000000
      5.89928571	     -2.77711385	     -4.83755122	      0.26619210	      1.05476388	      0.92271812	      0.57062656	     10.16800308	      7.16232506	    -11.67795750	     22.94309971	     22.94309971	     17.18289796	     -3.58326924	      0.13568076	     29.79015992	    -18.23611184	     -1.78010570	     56.20266975	     56.20266975	     10.94978810	    -19.35928387	     19.09915421	    -10.18206440	      6.63877902	      0.49458267	     21.11467794	    -22.79445627	    -13.81637675	     65.32851981	     45.37208414	      0.00000000	      0.00000000	     -8.36507403	     -8.01210557	     -2.99446929	     30.75369817	     46.15507696	      0.00000000	      0.00000000
      5.92285714	     -3.05569735	     -4.76388687	      0.64540652	      1.05198385	      0.92249652	      0.57052360	     10.31415740	      6.99989575	    -12.21847699	     22.90429876	     22.90429876	     17.33629468	     -3.21452594	      0.35233098	     29.80885285	    -17.93537097	     -2.11873512	     52.81316076	     52.81316076	     11.67758758	    -19.28076705	     18.41283554	    -10.09316977	      6.77627693	      0.17250469	     23.97051317	    -22.24783089	    -13.01033462	     66.83040615	     45.30960688	      0.00000000	      0.00000000	     -9.60467354	     -7.85752275	     -0.39775977	     30.04648803	     45.74665780	      0.00000000	      0.00000000
      5.94642857	     -3.21298411	     -4.57372247	      0.99489114	      1.04911210	      0.92251078	      0.57010615	     10.33741198	      6.74902413	    -12.45864701	     22.88101603	     22.88101603	     17.58013973	     -3.20348520	      0.78823736	     29.41077100	    -17.40556903	     -2.47184609	     48.87928033	     48.87928033	     11.53788269	    -19.13481430	     16.31491163	    -10.15014467	      6.80130338	      0.66214211	     26.31539556	    -22.21259572	    -12.47849501	     67.93519281	     45.31053736	      0.00000000	      0.00000000	    -11.16217994	     -9.57119733	     11.12431269	     32.24990356	     44.18354116	      0.00000000	      0.00000000
      5.97000000	     -3.44251824	     -4.32573704	      1.37890481	      1.04608564	      0.92253672	      0.56919078	     10.39683993	      6.41726862	    -12.66958018	     22.74870989	     22.74870989	     17.61969275	     -3.31637399	      0.74996162	     29.06000949	    -16.58315607	     -2.45507552	     44.88392051	     44.88392051	     11.79219998	    -18.82089427	     16.19951357	    -10.18645275	      6.72695854	      0.89385517	     28.61099349	    -21.78102286	    -12.33593910	     69.25952371	     45.27252320	      0.00000000	      0.00000000	    -11.75171835	     -9.23113962	     11.53557412	     31.83092839	     44.13697165	      0.00000000	      0.00000000
      5.99357143	     -3.66873248	     -4.20072651	      1.82447313	      1.04304573	      0.92238926	      0.56797572	     10.41004397	      6.18842292	    -13.03165309	     22.53037423	     22.53037423	     17.60145202	     -3.31801314	      0.44151414	     28.57572648	    -15.87931486	     -2.37868113	     40.63998947	     40.63998947	     10.39062036	    -18.41516262	     12.14500431	    -10.17978954	      6.82656359	      0.60500090	     31.50411187	    -21.11131322	    -11.11498335	     70.01922417	     45.23534248	      0.00000000	      0.00000000	    -12.43917543	     -9.24417655	     14.15015258	     31.50287508	     43.89734708	      0.00000000	      0.00000000
      6.01714286	     -3.88700768	     -3.99435887	      2.25999090	      1.03994380	      0.92235793	      0.56646935	     10.42211474	      5.89024374	    -13.20603825	     22.33068883	     22.33068883	     17.64500484	     -3.56491086	      0.42207349	     28.22565965	    -14.99777860	     -2.01241863	     36.91842884	     36.91842884	     10.40365992	    -17.42391605	     12.27969247	    -10.23307046	      6.79159231	      0.84470308	     33.65425924	    -20.62860672	    -10.97244996	     71.26455532	     45.20011430	      0.00000000	      0.00000000	    -12.77351313	     -9.08124314	     14.57456956	     31.36131975	     43.85248922	      0.00000000	      0.00000000
      6.04071429	     -4.07879641	     -3.84856355	      2.74373878	      1.03692739	      0.92229579	      0.56473547	     10.36200597	      5.64232314	    -13.44809738	     22.06132909	     22.06132909	     17.67144828	     -3.77311177	      0.36557302	     27.93552729	    -14.22655170	     -1.62674515	     33.57675118	     33.57675118	     10.33966344	    -15.97471566	     12.04213647	    -10.28540018	      6.80441345	      0.86734051	     35.86092752	    -19.97623170	    -10.60610358	     72.53553283	     45.15724208	      0.00000000	      0.00000000	    -13.06143457	     -8.99804781	     15.17231604	     31.15813282	     43.78648861	      0.00000000	      0.00000000
      6.06428571	     -4.28372828	     -3.73534378	      3.23583897	      1.03398302	      0.92220554	      0.56286875	     10.28919742	      5.43096769	    -13.67145446	     21.75191603	     21.75191603	     17.68991641	     -3.99153171	      0.29622298	     27.76913747	    -13.53918636	     -1.26726392	     30.73003620	     30.73003620	     10.27272065	    -14.22954109	     11.78956573	    -10.28450860	      6.80220628	      0.97413903	     37.92370526	    -19.45601863	    -10.17321784	     73.62880032	     45.11755965	      0.00000000	      0.00000000	    -13.22269463	     -9.00755479	     15.72245159	     31.00280688	     43.72570395	      0.00000000	      0.00000000
      6.08785714	     -4.45967091	     -3.66688031	      3.73160197	      1.03121890	      0.92215859	      0.56085221	     10.13912193	      5.26734210	    -13.91542062	     21.37655980	     21.37655980	     17.67219009	     -4.21227825	      0.20072362	     27.67127233	    -12.93197582	     -0.91796034	     28.39424486	     28.39424486	     10.23390122	    -12.41876016	     11.43170783	    -10.30206495	      6.82288405	      0.99507253	     39.91860255	    -18.91650805	     -9.60492084	     74.72729191	     45.07363627	      0.00000000	      0.00000000	    -13.33106163	     -9.11059280	     16.32932818	     30.85552611	     43.65964807	      0.00000000	      0.00000000
      6.11142857	     -4.61214116	     -3.70369420	      4.23195345	      1.02867621	      0.92201293	      0.55876897	      9.87275785	      5.24302558	    -14.13660322	     20.80641996	     20.80641996	     17.24416054	     -4.58899049	     -0.95282889	     27.59908344	    -12.46362461	     -0.56384174	     26.41993209	     26.41993209	      9.38114449	    -10.95332845	      8.93221401	    -10.27020820	      6.92302370	      1.16040168	     41.71649497	    -18.77170031	     -8.48066420	     75.81041138	     45.08702356	      0.00000000	      0.00000000	    -13.43184462	    -10.37860394	     22.53414223	     31.78718354	     43.22029936	      0.00000000	      0.00000000
      6.13500000	     -4.79296328	     -3.64451313	      4.68152384	      1.02631196	      0.92199103	      0.55656992	      9.68271711	      5.07536681	    -14.36343738	     20.41670412	     20.41670412	     17.27676104	     -4.70488926	     -0.87798562	     27.64131379	    -11.90292294	     -0.19328706	     25.06531089	     25.06531089	      9.47711860	     -9.53687240	      8.96829706	    -10.23223983	      6.81125822	      1.25429272	     43.40404101	    -18.35310713	     -8.06973878	     76.93856998	     45.04732969	      0.00000000	      0.00000000	    -13.38865309	    -10.57289526	     22.69222426	     31.60962803	     43.23161222	      0.00000000	      0.00000000
      6.15857143	     -4.96849456	     -3.66104231	      5.08080027	      1.02423512	      0.92195794	      0.55430527	      9.43384594	      4.99471200	    -14.59351533	     19.95510403	     19.95510403	     17.31030100	     -4.73929541	     -0.83439709	     27.71808740	    -11.46961197	      0.13993252	     24.11526228	     24.11526228	      9.48220029	     -8.33017129	      8.82638310	    -10.16657111	      6.75217019	      1.32166310	     44.96354630	    -17.95957456	     -7.50523770	     78.10242897	     45.00132252	      0.00000000	      0.00000000	    -13.37769944	    -10.77096803	     22.88115326	     31.41903163	     43.23677444	      0.00000000	      0.00000000
